<?xml version="1.0" standalone="no"?>
<!DOCTYPE svg PUBLIC "-//W3C//DTD SVG 20010904//EN"
 "http://www.w3.org/TR/2001/REC-SVG-20010904/DTD/svg10.dtd">
<svg version="1.0" xmlns="http://www.w3.org/2000/svg"
 width="512.000000pt" height="512.000000pt" viewBox="0 0 512.000000 512.000000"
 preserveAspectRatio="xMidYMid meet">
<metadata>
Created by potrace 1.11, written by Peter Selinger 2001-2013
</metadata>
<g transform="translate(0.000000,512.000000) scale(0.100000,-0.100000)"
fill="#000000" stroke="none">
<path d="M0 2560 l0 -2560 2560 0 2560 0 0 2560 0 2560 -2560 0 -2560 0 0
-2560z m3332 -725 c354 -1013 437 -1263 439 -1335 0 -14 13 22 27 80 15 58
209 615 432 1238 l404 1132 179 0 c98 0 177 -4 175 -9 -1 -4 -235 -634 -518
-1400 l-515 -1391 -184 2 -184 3 -499 1375 c-274 756 -501 1385 -504 1398 l-6
22 183 -2 183 -3 388 -1110z"/>
</g>
</svg>
