<?xml version="1.0" standalone="no"?>
<!DOCTYPE svg PUBLIC "-//W3C//DTD SVG 20010904//EN"
 "http://www.w3.org/TR/2001/REC-SVG-20010904/DTD/svg10.dtd">
<svg version="1.0" xmlns="http://www.w3.org/2000/svg"
 width="512.000000pt" height="512.000000pt" viewBox="0 0 512.000000 512.000000"
 preserveAspectRatio="xMidYMid meet">
<metadata>
Created by potrace 1.11, written by Peter Selinger 2001-2013
</metadata>
<g transform="translate(0.000000,512.000000) scale(0.100000,-0.100000)"
fill="#000000" stroke="none">
<path d="M0 2560 l0 -2560 2560 0 2560 0 0 2560 0 2560 -2560 0 -2560 0 0
-2560z m2890 -1925 l0 -445 -50 0 -50 0 0 445 0 445 50 0 50 0 0 -445z m290 0
l0 -445 -50 0 -50 0 0 445 0 445 50 0 50 0 0 -445z m-1545 43 c66 -191 123
-349 125 -352 3 -2 61 155 130 350 l125 354 53 0 c28 0 52 -3 52 -7 0 -5 -68
-194 -152 -421 l-152 -412 -57 0 -56 0 -148 408 c-81 224 -150 413 -153 420
-3 10 9 12 54 10 l58 -3 121 -347z m865 101 c59 -27 77 -44 107 -103 18 -35
27 -72 30 -128 l6 -78 -213 0 -213 0 7 -46 c8 -60 37 -107 84 -136 30 -18 51
-23 107 -23 59 1 79 6 128 32 l57 31 0 -48 0 -48 -52 -22 c-62 -27 -183 -38
-244 -21 -98 26 -167 114 -185 235 -10 73 3 172 31 226 24 47 108 123 152 137
56 18 148 15 198 -8z m1903 7 c18 -7 49 -32 68 -54 l35 -41 26 33 c59 74 180
98 268 54 34 -17 51 -35 70 -73 24 -48 25 -56 28 -282 l3 -233 -50 0 -51 0 0
203 c0 111 -5 218 -10 238 -16 57 -51 83 -115 83 -46 1 -58 -3 -85 -29 -61
-58 -64 -71 -68 -292 l-4 -203 -49 0 -49 0 0 210 c0 229 -6 264 -54 295 -66
44 -152 21 -193 -51 -21 -37 -23 -50 -23 -246 l0 -208 -50 0 -50 0 0 300 0
300 50 0 50 0 0 -42 0 -42 38 36 c20 21 48 41 62 47 37 14 116 13 153 -3z
m-951 -208 c3 -192 5 -216 23 -248 54 -92 179 -90 249 4 19 25 21 44 24 242
l3 214 50 0 49 0 0 -300 0 -300 -50 0 -50 0 0 40 0 41 -34 -35 c-19 -19 -51
-40 -72 -46 -52 -18 -154 -8 -197 19 -79 49 -97 119 -97 383 l0 198 49 0 49 0
4 -212z"/>
<path d="M2325 702 c-22 -11 -48 -28 -57 -38 -18 -20 -48 -85 -48 -104 0 -6
57 -10 160 -10 159 0 160 0 160 23 -1 36 -36 104 -64 122 -40 26 -104 29 -151
7z"/>
</g>
</svg>
